# Blender v2.82 (sub 7) OBJ File: ''
# www.blender.org
mtllib CubicCorner.mtl
o Cube
v 1.000000 1.000000 0.776950
v 1.000000 -1.000000 0.776950
v 1.000000 1.000000 1.933149
v 1.000000 -1.000000 1.933149
v 2.500000 1.000000 -0.000000
v 2.119275 1.000000 -0.175888
v 2.119275 -1.000000 -0.175888
v 2.500000 -1.000000 0.000000
v -0.500000 -1.000000 -0.000000
v -0.119275 -1.000000 -0.175888
v -0.119275 1.000000 -0.175888
v -0.500000 1.000000 0.000000
v 2.025658 1.000000 1.591262
v 2.500000 1.000000 0.933149
v 2.500000 -1.000000 0.933149
v 2.025658 -1.000000 1.591263
v -0.500000 1.000000 0.933149
v -0.025658 1.000000 1.591263
v -0.025658 -1.000000 1.591263
v -0.500000 -1.000000 0.933149
vt 0.463347 0.741355
vt 0.625000 0.920943
vt 0.625000 0.750000
vt 0.625000 0.500000
vt 0.158636 0.126908
vt 0.161653 0.258645
vt 0.375000 0.750000
vt 0.375000 0.920943
vt 0.625000 0.750000
vt 0.625000 0.685339
vt 0.625000 0.564661
vt 0.625000 0.500000
vt 0.375000 0.500000
vt 0.375000 0.500000
vt 0.375000 0.564661
vt 0.375000 0.685339
vt 0.375000 0.750000
vt 0.095181 0.126908
vt 0.096992 0.258645
vt 0.278008 0.741355
vn 0.0000 1.0000 0.0000
vn -0.3162 -0.0000 0.9487
vn 0.0000 -1.0000 0.0000
vn 0.3162 0.0000 0.9487
vn 0.4194 -0.0000 -0.9078
vn -0.6482 0.0000 -0.7615
vn -0.4194 0.0000 -0.9078
vn 0.6482 0.0000 -0.7615
vn 0.8112 0.0000 0.5847
vn 1.0000 0.0000 0.0000
vn -0.8112 -0.0000 0.5847
vn -1.0000 0.0000 0.0000
usemtl Material
s off
f 17/1/1 18/2/1 3/3/1 1/4/1 11/5/1 12/6/1
f 4/7/2 3/3/2 18/2/2 19/8/2
f 1/4/1 3/3/1 13/9/1 14/10/1 5/11/1 6/12/1
f 4/7/3 2/13/3 7/14/3 8/15/3 15/16/3 16/17/3
f 3/3/4 4/7/4 16/17/4 13/9/4
f 5/11/5 8/15/5 7/14/5 6/12/5
f 2/13/6 1/4/6 6/12/6 7/14/6
f 11/5/7 10/18/7 9/19/7 12/6/7
f 10/18/8 11/5/8 1/4/8 2/13/8
f 13/9/9 16/17/9 15/16/9 14/10/9
f 8/15/10 5/11/10 14/10/10 15/16/10
f 19/8/11 18/2/11 17/1/11 20/20/11
f 12/6/12 9/19/12 20/20/12 17/1/12
